<svg display = 'none' xmlns="http://www.w3.org/2000/svg">
    <symbol id="WGLogo" viewBox="0 0 19 19">
        <g>
            <path d="M1.8,9.5c0-4.3,3.4-7.7,7.7-7.7c4.2,0,7.7,3.4,7.7,7.7
	c0,2.8-1.5,5.3-3.8,6.6c0.5-1.7,0.7-3.4,0.6-5.4c0.5,0.1,0.8,0.2,1.3,0.4c-0.6-1.4-1.2-2.8-2-4.1c-0.7,1.4-1.7,2.7-2.7,3.7l1.6-0.1
	c-1.4,2.5-3.3,3.6-5.8,4c-0.6-2.7-0.2-7.3,3-9.4l0.3,1.5c0.6-1,1.8-2.3,2.7-3.2C11,3.1,9.4,2.9,7.8,3.2C8,3.4,8.4,3.7,8.6,3.9
	c-3.5,1.5-5.5,3.9-6.7,6.8C1.8,10.3,1.8,9.9,1.8,9.5L1.8,9.5z M9.5,19c5.2,0,9.5-4.3,9.5-9.5C19,4.3,14.7,0,9.5,0S0,4.3,0,9.5
	C0,14.7,4.3,19,9.5,19L9.5,19z"/>
        </g>
    </symbol>
    <symbol id="forgeLogo" viewBox="0 0 517 181">
        <g>
            <path d="M487.295 0C471.166 0 458.095 13.0717 458.095 29.1999C458.095 45.3281 471.166 58.3999 487.295 58.3999C503.423 58.3999 516.495 45.3281 516.495 29.1999C516.495 13.0717 503.423 0 487.295 0ZM499.226 49.6235C500.677 44.4876 501.316 39.2098 501.076 33.1569C501.823 33.3693 502.402 33.5404 502.978 33.7104L502.978 33.7105C503.29 33.8025 503.6 33.8942 503.936 33.992C504.252 34.0848 504.591 34.183 504.978 34.2922C503.215 29.8549 501.294 25.7996 498.8 21.6953C496.568 25.9197 493.615 29.8822 490.629 32.9987L495.531 32.6985C494.739 34.1121 493.888 35.3838 492.976 36.5354C492.37 37.2995 491.732 38.009 491.071 38.664C487.436 42.2608 483.01 44.2092 477.852 44.9515C477.416 42.8502 477.165 40.4051 477.186 37.8126C477.23 32.6439 478.36 26.9021 481.236 22.2083C482.677 19.8614 484.549 17.7765 486.951 16.15L487.9 20.8111C489.789 17.7874 493.467 13.8686 496.251 11.1069C491.923 9.38217 486.863 8.83638 481.995 9.7424C482.404 10.0781 482.849 10.4669 483.294 10.8558C483.739 11.2447 484.184 11.6336 484.593 11.9692C473.764 16.5266 467.81 24.0204 463.902 32.7749C463.727 31.6123 463.634 30.417 463.634 29.2054C463.634 16.1446 474.223 5.55071 487.289 5.55071C500.355 5.55071 510.944 16.1391 510.944 29.2054C510.944 37.9108 506.234 45.5191 499.226 49.6235ZM335.253 42.7954H345.192V87.5396H335.253V42.7954ZM340.258 35.4218C338.457 35.4218 336.945 34.8378 335.728 33.6643C334.511 32.4363 333.899 30.9244 333.899 29.1397C333.899 27.3495 334.505 25.8704 335.728 24.6969C336.95 23.4689 338.457 22.8521 340.258 22.8521C342.065 22.8521 343.571 23.4361 344.788 24.6096C346.011 25.7285 346.616 27.153 346.616 28.8831C346.616 30.7279 346.011 32.2889 344.788 33.577C343.625 34.8105 342.114 35.4218 340.258 35.4218ZM68.2132 87.5452L86.661 28.8888H76.8095L62.5752 73.7203L48.5046 28.8888H38.9642L24.5716 73.4692L10.7358 28.8888H0L18.4478 87.5452H29.4947L43.4888 44.1383L57.2428 87.5452H68.2132ZM100.291 88.129C106.294 88.129 111.015 86.2078 114.017 82.42V87.5504H123.503V58.3887C123.503 48.4225 115.813 42.2933 106.294 42.2933C96.2571 42.2933 88.0211 46.5887 87.0769 56.8714H97.114C97.7144 52.4887 100.607 50.1363 105.694 50.1363C111.638 50.1363 113.444 53.3456 113.444 58.809V61.3906H108.527C95.7441 61.3906 85.2757 64.7909 85.2757 75.0736C85.2703 84.2539 92.049 88.129 100.291 88.129ZM102.774 80.799C97.6271 80.799 95.3129 78.3538 95.3129 74.6479C95.3129 69.5011 100.629 68.3058 108.521 68.3058H113.439V71.8643C113.444 76.651 108.969 80.799 102.774 80.799ZM224.998 88.129C231.001 88.129 235.722 86.2078 238.724 82.42V87.5504H248.21V58.3887C248.21 48.4225 240.52 42.2933 231.001 42.2933C220.964 42.2933 212.728 46.5887 211.784 56.8714H221.821C222.421 52.4887 225.314 50.1363 230.401 50.1363C236.345 50.1363 238.151 53.3456 238.151 58.809V61.3906H233.234C220.451 61.3906 209.983 64.7909 209.983 75.0736C209.983 84.2539 216.762 88.129 224.998 88.129ZM227.486 80.799C222.34 80.799 220.025 78.3538 220.025 74.6479C220.025 69.5011 225.341 68.3058 233.234 68.3058H238.151V71.8643C238.157 76.651 233.681 80.799 227.486 80.799ZM140.995 49.334C143.855 44.6402 148.892 42.2933 156.102 42.2933V52.2649C155.256 52.0957 154.487 52.0138 153.799 52.0138C149.929 52.0138 146.911 53.2146 144.733 55.6161C142.561 57.963 141.475 61.3687 141.475 65.8388V87.5395H131.536V42.7954H140.995V49.334ZM322.554 47.2382C319.426 43.9416 315.191 42.2933 309.837 42.2933C306.496 42.2933 303.451 42.9646 300.695 44.3127C297.938 45.5953 295.684 47.4128 293.938 49.7597C292.508 47.3036 290.548 45.4589 288.054 44.2308C285.614 42.9482 282.809 42.3042 279.627 42.3042C276.712 42.3042 274.06 42.8391 271.675 43.8979C269.29 44.9567 267.297 46.4959 265.709 48.5044V42.8063H256.251V87.5504H266.179V64.84C266.179 60.4846 267.161 57.1607 269.12 54.8684C271.134 52.5815 273.836 51.4353 277.231 51.4353C280.304 51.4353 282.662 52.445 284.304 54.4535C285.947 56.4075 286.771 59.3438 286.771 63.2517V87.5504H296.71V64.84C296.71 60.5391 297.715 57.2425 299.729 54.9502C301.748 52.6033 304.422 51.4298 307.763 51.4298C310.835 51.4298 313.193 52.4396 314.836 54.4481C316.479 56.402 317.303 59.3384 317.303 63.2463V87.545H327.242V61.9036C327.242 55.365 325.681 50.4802 322.554 47.2382ZM390.166 47.2382C386.935 43.9416 382.639 42.2933 377.285 42.2933C374.158 42.2933 371.347 42.8227 368.852 43.887C366.364 44.9513 364.295 46.5122 362.652 48.5808V42.8009H353.194V87.545H363.132V64.9219C363.132 60.5664 364.197 57.2425 366.314 54.9502C368.432 52.6033 371.325 51.4298 374.982 51.4298C378.213 51.4298 380.702 52.4396 382.454 54.4481C384.206 56.402 385.079 59.3384 385.079 63.2463V87.545H395.018V61.9036C395.018 55.4196 393.397 50.5347 390.166 47.2382ZM18.2561 114.251V132.098H45.131V141.317H18.2561V163.771H7.92427V105.12H48.5531V114.251H18.2561ZM60.5559 161.429C63.9999 163.383 67.8696 164.36 72.1649 164.36C76.5095 164.36 80.4064 163.383 83.8504 161.429C87.2943 159.475 89.9687 156.768 91.879 153.302C93.8384 149.782 94.8208 145.819 94.8208 141.404C94.8208 136.989 93.8384 133.053 91.879 129.588C89.9742 126.127 87.2943 123.415 83.8504 121.461C80.4064 119.507 76.5095 118.53 72.1649 118.53C67.8696 118.53 63.9999 119.507 60.5559 121.461C57.112 123.415 54.4048 126.122 52.4454 129.588C50.5406 133.053 49.5855 136.989 49.5855 141.404C49.5855 145.819 50.5352 149.782 52.4454 153.302C54.4048 156.763 57.112 159.475 60.5559 161.429ZM81.2306 151.545C78.8455 154.116 75.8218 155.398 72.1649 155.398C68.5081 155.398 65.4844 154.11 63.0993 151.545C60.7688 148.974 59.6008 145.596 59.6008 141.404C59.6008 137.212 60.7688 133.834 63.0993 131.263C65.4844 128.693 68.5081 127.41 72.1649 127.41C75.8218 127.41 78.8455 128.693 81.2306 131.263C83.6157 133.834 84.811 137.212 84.811 141.404C84.811 145.596 83.6157 148.974 81.2306 151.545ZM109.236 125.521C112.095 120.828 117.133 118.481 124.343 118.481V128.452C123.497 128.283 122.728 128.201 122.04 128.201C118.17 128.201 115.152 129.402 112.974 131.803C110.802 134.15 109.716 137.556 109.716 142.026V163.727H99.7769V118.983H109.236V125.521ZM219.191 144.755C219.295 143.412 219.35 142.381 219.35 141.655C219.35 137.07 218.422 133.053 216.566 129.593C214.765 126.073 212.222 123.365 208.936 121.466C205.699 119.512 202.021 118.535 197.884 118.535C193.692 118.535 189.931 119.512 186.591 121.466C183.251 123.425 180.631 126.16 178.721 129.68C176.865 133.141 175.937 137.054 175.937 141.409C175.937 145.825 176.887 149.787 178.797 153.308C180.757 156.768 183.513 159.481 187.066 161.435C190.619 163.388 194.723 164.365 199.39 164.365C203.047 164.365 206.332 163.749 209.247 162.521C212.167 161.293 214.574 159.475 216.484 157.074L211.157 150.622C208.139 153.859 204.297 155.48 199.63 155.48C195.973 155.48 192.895 154.53 190.406 152.631C187.972 150.677 186.46 148.052 185.876 144.755H219.191ZM189.768 129.926C191.994 127.912 194.696 126.908 197.878 126.908C201.115 126.908 203.816 127.912 205.989 129.926C208.161 131.934 209.46 134.56 209.886 137.802H185.794C186.269 134.505 187.595 131.88 189.768 129.926ZM135.51 140.978C135.51 149.274 142.491 153.226 148.238 153.226C154.138 153.226 161.244 149.274 161.244 140.727V140.127C161.244 131.923 155.415 127.099 148.587 127.099C140.663 127.099 135.51 132.087 135.51 140.296V140.978ZM171.058 158.875C171.058 170.287 164.688 180.575 147.889 180.575C134.435 180.575 127.28 173.868 126.183 165.757H136.575C137.721 169.889 141.781 171.799 147.807 171.799C155.454 171.799 161.092 167.547 161.092 159.42V155.562C158.035 159.42 152.523 161.86 145.891 161.86C136.28 161.86 125.424 153.848 125.424 141.065V140.465C125.424 127.415 134.168 118.486 145.891 118.486C153.38 118.486 158.919 121.078 161.621 125.527V119.075H171.058V158.875ZM180.451 76.9456C174.704 76.9456 167.723 72.994 167.723 64.698V64.0157C167.723 55.807 172.875 50.8184 180.8 50.8184C187.628 50.8184 193.457 55.6433 193.457 63.8465V64.4469C193.457 72.994 186.351 76.9456 180.451 76.9456ZM180.102 104.295C196.901 104.295 203.27 94.0071 203.27 82.5945V42.7953H193.834V49.2466C191.132 44.7983 185.592 42.2058 178.104 42.2058C166.38 42.2058 157.637 51.135 157.637 64.1849V64.7853C157.637 77.5678 168.493 85.58 178.104 85.58C184.735 85.58 190.248 83.1403 193.304 79.2816V83.1403C193.304 91.2672 187.666 95.5189 180.02 95.5189C173.994 95.5189 169.933 93.6086 168.787 89.477H158.39C159.492 97.5875 166.648 104.295 180.102 104.295ZM409.832 64.698C409.832 72.994 416.812 76.9456 422.56 76.9456C428.454 76.9456 435.56 72.994 435.566 64.4469V63.8465C435.566 55.6433 429.737 50.8184 422.909 50.8184C414.984 50.8184 409.832 55.807 409.832 64.0157V64.698ZM445.379 82.5945C445.379 94.0071 439.01 104.295 422.21 104.295C408.751 104.295 401.596 97.5875 400.499 89.477H410.891C412.037 93.6086 416.097 95.5189 422.123 95.5189C429.77 95.5189 435.408 91.2672 435.408 83.1403V79.2816C432.351 83.1403 426.839 85.58 420.207 85.58C410.596 85.58 399.74 77.5678 399.74 64.7853V64.1849C399.74 51.135 408.484 42.2058 420.207 42.2058C427.701 42.2058 433.241 44.7983 435.942 49.2466V42.7953H445.379V82.5945Z"/>
        </g>
    </symbol>
    <symbol id="telegram" viewBox="0 0 32 32">
        <g>
            <path d="M16 0.5c-8.563 0-15.5 6.938-15.5 15.5s6.938 15.5 15.5 15.5c8.563 0 15.5-6.938 15.5-15.5s-6.938-15.5-15.5-15.5zM23.613 11.119l-2.544 11.988c-0.188 0.85-0.694 1.056-1.4 0.656l-3.875-2.856-1.869 1.8c-0.206 0.206-0.381 0.381-0.781 0.381l0.275-3.944 7.181-6.488c0.313-0.275-0.069-0.431-0.482-0.156l-8.875 5.587-3.825-1.194c-0.831-0.262-0.85-0.831 0.175-1.231l14.944-5.763c0.694-0.25 1.3 0.169 1.075 1.219z"/>
        </g>
    </symbol>
    <symbol id="facebook" viewBox="0 0 100 100">
        <g>
    <path d="M50,3.84C24.506,3.84,3.84,24.506,3.84,50S24.506,96.16,50,96.16S96.16,75.494,96.16,50S75.494,3.84,50,3.84  z M65.137,52.572c-1.854-0.031-3.549,0.023-5.704-0.07c-0.35-0.016-5.963,0.068-5.946,0.17c0.408,2.496-0.178,5.148-0.143,7.672  c0.021,1.471,0.453,14.779,0.254,19.688l-11.123,0.102c-0.046-4.18,0.158-8.479-0.023-13.992  c-0.037-1.133-0.074-13.061-0.206-13.689c0,0-4.916,0.035-7.214,0.049c0,0-0.031-4.402-0.031-5.891c0-1.463,0-2.924,0-4.387  c0,0,5.738-0.318,7.385-0.461c0,0,0.168-5.584,0.396-7.393c0.263-2.066,0.289-4.154,1.502-5.982  c2.223-3.346,4.417-6.295,8.504-7.184c1.546-0.338,11.741-2.342,12.119-0.693l-0.232,9.928c-2.772,0-6.094-0.281-8.923,1.82  c-1.575,1.172-2.01,2.148-2.169,4.076c-0.095,1.121-0.117,5.658-0.117,5.658c1.494,0.213,3.705,0.119,5.311,0  c1.814-0.135,6.471,0.346,6.471,0.346C65.246,45.342,65.126,52.275,65.137,52.572z"/>
        </g>
    </symbol>
    <symbol id="instagram" viewBox="0 0 48 48">
        <g>
            <path fill-rule="evenodd" clip-rule="evenodd" d="M0 24C0 10.7452 10.7452 0 24 0C37.2548 0 48 10.7452 48 24C48 37.2548 37.2548 48 24 48C10.7452 48 0 37.2548 0 24ZM24.0012 11.2C20.5249 11.2 20.0886 11.2152 18.7233 11.2773C17.3606 11.3397 16.4305 11.5555 15.6166 11.872C14.7747 12.1989 14.0606 12.6363 13.3491 13.348C12.6371 14.0595 12.1997 14.7736 11.8717 15.6152C11.5544 16.4294 11.3384 17.3598 11.2771 18.7219C11.216 20.0873 11.2 20.5238 11.2 24.0001C11.2 27.4764 11.2155 27.9114 11.2773 29.2767C11.34 30.6394 11.5557 31.5695 11.872 32.3834C12.1992 33.2253 12.6365 33.9394 13.3483 34.6509C14.0595 35.3629 14.7736 35.8013 15.615 36.1283C16.4294 36.4448 17.3598 36.6605 18.7222 36.7229C20.0876 36.7851 20.5236 36.8003 23.9996 36.8003C27.4762 36.8003 27.9111 36.7851 29.2765 36.7229C30.6391 36.6605 31.5703 36.4448 32.3848 36.1283C33.2264 35.8013 33.9394 35.3629 34.6506 34.6509C35.3626 33.9394 35.8 33.2253 36.128 32.3837C36.4427 31.5695 36.6587 30.6391 36.7227 29.277C36.784 27.9116 36.8 27.4764 36.8 24.0001C36.8 20.5238 36.784 20.0876 36.7227 18.7222C36.6587 17.3595 36.4427 16.4294 36.128 15.6155C35.8 14.7736 35.3626 14.0595 34.6506 13.348C33.9386 12.636 33.2266 12.1987 32.384 11.872C31.5679 11.5555 30.6373 11.3397 29.2746 11.2773C27.9092 11.2152 27.4746 11.2 23.9972 11.2H24.0012Z"/>
            <path fill-rule="evenodd" clip-rule="evenodd" d="M22.8529 13.5067C23.1937 13.5062 23.574 13.5067 24.0012 13.5067C27.4188 13.5067 27.8239 13.519 29.1735 13.5803C30.4215 13.6374 31.0989 13.8459 31.5501 14.0211C32.1474 14.2531 32.5733 14.5304 33.021 14.9784C33.469 15.4264 33.7464 15.8531 33.9789 16.4505C34.1541 16.9011 34.3629 17.5785 34.4197 18.8265C34.481 20.1758 34.4944 20.5812 34.4944 23.9972C34.4944 27.4132 34.481 27.8186 34.4197 29.1679C34.3626 30.4159 34.1541 31.0933 33.9789 31.5439C33.7469 32.1413 33.469 32.5666 33.021 33.0144C32.573 33.4624 32.1477 33.7397 31.5501 33.9717C31.0994 34.1477 30.4215 34.3557 29.1735 34.4128C27.8242 34.4741 27.4188 34.4874 24.0012 34.4874C20.5833 34.4874 20.1782 34.4741 18.8289 34.4128C17.5809 34.3552 16.9035 34.1466 16.4521 33.9714C15.8547 33.7394 15.428 33.4621 14.98 33.0141C14.532 32.5661 14.2547 32.1405 14.0222 31.5429C13.847 31.0922 13.6382 30.4149 13.5814 29.1669C13.52 27.8175 13.5078 27.4122 13.5078 23.994C13.5078 20.5758 13.52 20.1726 13.5814 18.8233C13.6384 17.5753 13.847 16.8979 14.0222 16.4467C14.2542 15.8494 14.532 15.4227 14.98 14.9747C15.428 14.5267 15.8547 14.2494 16.4521 14.0168C16.9033 13.8408 17.5809 13.6328 18.8289 13.5755C20.0097 13.5222 20.4673 13.5062 22.8529 13.5035V13.5067ZM30.8338 15.632C29.9858 15.632 29.2978 16.3193 29.2978 17.1675C29.2978 18.0155 29.9858 18.7035 30.8338 18.7035C31.6818 18.7035 32.3698 18.0155 32.3698 17.1675C32.3698 16.3195 31.6818 15.632 30.8338 15.632ZM24.0012 17.4267C20.371 17.4267 17.4278 20.37 17.4278 24.0001C17.4278 27.6303 20.371 30.5722 24.0012 30.5722C27.6314 30.5722 30.5735 27.6303 30.5735 24.0001C30.5735 20.37 27.6314 17.4267 24.0012 17.4267Z"/>
            <path fill-rule="evenodd" clip-rule="evenodd" d="M24.0012 19.7334C26.3575 19.7334 28.2679 21.6436 28.2679 24.0001C28.2679 26.3564 26.3575 28.2668 24.0012 28.2668C21.6446 28.2668 19.7345 26.3564 19.7345 24.0001C19.7345 21.6436 21.6446 19.7334 24.0012 19.7334Z"/>
        </g>
    </symbol>
    <symbol id="VK" viewBox="0 0 512 512">
        <g>
    <path d="M256,0C114.615,0,0,114.615,0,256S114.615,512,256,512,512,397.385,512,256,397.385,0,256,0ZM392.363,342.9H359.878a23.41,23.41,0,0,1-18.318-8.8c-9.742-12.231-28.934-33.918-49.085-43.233a7.666,7.666,0,0,0-10.916,6.928v32.128A12.974,12.974,0,0,1,268.585,342.9H253.564c-19.534,0-61.6-11.891-95.119-60.719-28.56-41.6-41.291-73.84-48.715-99.98a10.3,10.3,0,0,1,9.922-13.093h32.862a15.226,15.226,0,0,1,14.6,10.861c6.111,20.439,21.939,64.53,49.917,86.486a5.788,5.788,0,0,0,9.371-4.54V210.449c0-10.171-4.408-20.347-11.288-28.3a7.878,7.878,0,0,1,5.946-13.046h50.666a9.838,9.838,0,0,1,9.838,9.837v69.325a5.468,5.468,0,0,0,8.636,4.456c9.3-6.62,17.265-16.4,24.591-27.393,9.22-13.828,20.471-36.686,26.115-48.549A13.457,13.457,0,0,1,353.06,169.1H388.9a8.788,8.788,0,0,1,7.873,12.7c-9.044,18.14-26.659,51.418-43.235,70.942a13.877,13.877,0,0,0,1.623,19.54c10.805,9.232,27.673,26.3,45.859,54.729A10.305,10.305,0,0,1,392.363,342.9Z"/>
        </g>
    </symbol>
    <symbol id="like" viewBox="0 0 44 38">
        <g>
            <path stroke="rgba(204, 204, 204, 0.6)" stroke-width="3px" d="M35.500,10.852 C35.500,5.687 31.389,1.500 26.318,1.500 C23.007,1.500 20.115,3.291 18.500,5.968 C16.885,3.291 13.992,1.500 10.681,1.500 C5.610,1.500 1.500,5.687 1.500,10.852 C1.500,13.664 2.723,16.180 4.652,17.893 L17.662,31.146 C17.884,31.372 18.186,31.500 18.500,31.500 C18.814,31.500 19.116,31.372 19.338,31.146 L32.348,17.893 C34.276,16.180 35.500,13.664 35.500,10.852 Z"/>
        </g>
    </symbol>
    <symbol id="arrow" viewBox="0 0 9 5">
        <g>
            <path xmlns="http://www.w3.org/2000/svg" fill="#FFF" d="M9 0L4.5 3.6 0 0v1l4.5 4L9 1z"/>
        </g>
    </symbol>
    <symbol id="close" viewBox="0 0 512 512">
        <g>
            <path d="M268.064,256.75l138.593-138.593c3.124-3.124,3.124-8.189,0-11.313c-3.125-3.124-8.189-3.124-11.314,0L256.75,245.436   L118.157,106.843c-3.124-3.124-8.189-3.124-11.313,0c-3.125,3.124-3.125,8.189,0,11.313L245.436,256.75L106.843,395.343   c-3.125,3.125-3.125,8.189,0,11.314c1.562,1.562,3.609,2.343,5.657,2.343s4.095-0.781,5.657-2.343L256.75,268.064l138.593,138.593   c1.563,1.562,3.609,2.343,5.657,2.343s4.095-0.781,5.657-2.343c3.124-3.125,3.124-8.189,0-11.314L268.064,256.75z"/>
        </g>
    </symbol>
</svg>
