<svg display = 'none' xmlns="http://www.w3.org/2000/svg">
    <symbol id="WGLogo" viewBox="0 0 19 19">
        <g>
            <path d="M1.8,9.5c0-4.3,3.4-7.7,7.7-7.7c4.2,0,7.7,3.4,7.7,7.7
	c0,2.8-1.5,5.3-3.8,6.6c0.5-1.7,0.7-3.4,0.6-5.4c0.5,0.1,0.8,0.2,1.3,0.4c-0.6-1.4-1.2-2.8-2-4.1c-0.7,1.4-1.7,2.7-2.7,3.7l1.6-0.1
	c-1.4,2.5-3.3,3.6-5.8,4c-0.6-2.7-0.2-7.3,3-9.4l0.3,1.5c0.6-1,1.8-2.3,2.7-3.2C11,3.1,9.4,2.9,7.8,3.2C8,3.4,8.4,3.7,8.6,3.9
	c-3.5,1.5-5.5,3.9-6.7,6.8C1.8,10.3,1.8,9.9,1.8,9.5L1.8,9.5z M9.5,19c5.2,0,9.5-4.3,9.5-9.5C19,4.3,14.7,0,9.5,0S0,4.3,0,9.5
	C0,14.7,4.3,19,9.5,19L9.5,19z"/>
        </g>
    </symbol>
    <symbol id="forgeLogo" viewBox="0 0 517 181">
        <g>
            <path d="M487.295 0C471.166 0 458.095 13.0717 458.095 29.1999C458.095 45.3281 471.166 58.3999 487.295 58.3999C503.423 58.3999 516.495 45.3281 516.495 29.1999C516.495 13.0717 503.423 0 487.295 0ZM499.226 49.6235C500.677 44.4876 501.316 39.2098 501.076 33.1569C501.823 33.3693 502.402 33.5404 502.978 33.7104L502.978 33.7105C503.29 33.8025 503.6 33.8942 503.936 33.992C504.252 34.0848 504.591 34.183 504.978 34.2922C503.215 29.8549 501.294 25.7996 498.8 21.6953C496.568 25.9197 493.615 29.8822 490.629 32.9987L495.531 32.6985C494.739 34.1121 493.888 35.3838 492.976 36.5354C492.37 37.2995 491.732 38.009 491.071 38.664C487.436 42.2608 483.01 44.2092 477.852 44.9515C477.416 42.8502 477.165 40.4051 477.186 37.8126C477.23 32.6439 478.36 26.9021 481.236 22.2083C482.677 19.8614 484.549 17.7765 486.951 16.15L487.9 20.8111C489.789 17.7874 493.467 13.8686 496.251 11.1069C491.923 9.38217 486.863 8.83638 481.995 9.7424C482.404 10.0781 482.849 10.4669 483.294 10.8558C483.739 11.2447 484.184 11.6336 484.593 11.9692C473.764 16.5266 467.81 24.0204 463.902 32.7749C463.727 31.6123 463.634 30.417 463.634 29.2054C463.634 16.1446 474.223 5.55071 487.289 5.55071C500.355 5.55071 510.944 16.1391 510.944 29.2054C510.944 37.9108 506.234 45.5191 499.226 49.6235ZM335.253 42.7954H345.192V87.5396H335.253V42.7954ZM340.258 35.4218C338.457 35.4218 336.945 34.8378 335.728 33.6643C334.511 32.4363 333.899 30.9244 333.899 29.1397C333.899 27.3495 334.505 25.8704 335.728 24.6969C336.95 23.4689 338.457 22.8521 340.258 22.8521C342.065 22.8521 343.571 23.4361 344.788 24.6096C346.011 25.7285 346.616 27.153 346.616 28.8831C346.616 30.7279 346.011 32.2889 344.788 33.577C343.625 34.8105 342.114 35.4218 340.258 35.4218ZM68.2132 87.5452L86.661 28.8888H76.8095L62.5752 73.7203L48.5046 28.8888H38.9642L24.5716 73.4692L10.7358 28.8888H0L18.4478 87.5452H29.4947L43.4888 44.1383L57.2428 87.5452H68.2132ZM100.291 88.129C106.294 88.129 111.015 86.2078 114.017 82.42V87.5504H123.503V58.3887C123.503 48.4225 115.813 42.2933 106.294 42.2933C96.2571 42.2933 88.0211 46.5887 87.0769 56.8714H97.114C97.7144 52.4887 100.607 50.1363 105.694 50.1363C111.638 50.1363 113.444 53.3456 113.444 58.809V61.3906H108.527C95.7441 61.3906 85.2757 64.7909 85.2757 75.0736C85.2703 84.2539 92.049 88.129 100.291 88.129ZM102.774 80.799C97.6271 80.799 95.3129 78.3538 95.3129 74.6479C95.3129 69.5011 100.629 68.3058 108.521 68.3058H113.439V71.8643C113.444 76.651 108.969 80.799 102.774 80.799ZM224.998 88.129C231.001 88.129 235.722 86.2078 238.724 82.42V87.5504H248.21V58.3887C248.21 48.4225 240.52 42.2933 231.001 42.2933C220.964 42.2933 212.728 46.5887 211.784 56.8714H221.821C222.421 52.4887 225.314 50.1363 230.401 50.1363C236.345 50.1363 238.151 53.3456 238.151 58.809V61.3906H233.234C220.451 61.3906 209.983 64.7909 209.983 75.0736C209.983 84.2539 216.762 88.129 224.998 88.129ZM227.486 80.799C222.34 80.799 220.025 78.3538 220.025 74.6479C220.025 69.5011 225.341 68.3058 233.234 68.3058H238.151V71.8643C238.157 76.651 233.681 80.799 227.486 80.799ZM140.995 49.334C143.855 44.6402 148.892 42.2933 156.102 42.2933V52.2649C155.256 52.0957 154.487 52.0138 153.799 52.0138C149.929 52.0138 146.911 53.2146 144.733 55.6161C142.561 57.963 141.475 61.3687 141.475 65.8388V87.5395H131.536V42.7954H140.995V49.334ZM322.554 47.2382C319.426 43.9416 315.191 42.2933 309.837 42.2933C306.496 42.2933 303.451 42.9646 300.695 44.3127C297.938 45.5953 295.684 47.4128 293.938 49.7597C292.508 47.3036 290.548 45.4589 288.054 44.2308C285.614 42.9482 282.809 42.3042 279.627 42.3042C276.712 42.3042 274.06 42.8391 271.675 43.8979C269.29 44.9567 267.297 46.4959 265.709 48.5044V42.8063H256.251V87.5504H266.179V64.84C266.179 60.4846 267.161 57.1607 269.12 54.8684C271.134 52.5815 273.836 51.4353 277.231 51.4353C280.304 51.4353 282.662 52.445 284.304 54.4535C285.947 56.4075 286.771 59.3438 286.771 63.2517V87.5504H296.71V64.84C296.71 60.5391 297.715 57.2425 299.729 54.9502C301.748 52.6033 304.422 51.4298 307.763 51.4298C310.835 51.4298 313.193 52.4396 314.836 54.4481C316.479 56.402 317.303 59.3384 317.303 63.2463V87.545H327.242V61.9036C327.242 55.365 325.681 50.4802 322.554 47.2382ZM390.166 47.2382C386.935 43.9416 382.639 42.2933 377.285 42.2933C374.158 42.2933 371.347 42.8227 368.852 43.887C366.364 44.9513 364.295 46.5122 362.652 48.5808V42.8009H353.194V87.545H363.132V64.9219C363.132 60.5664 364.197 57.2425 366.314 54.9502C368.432 52.6033 371.325 51.4298 374.982 51.4298C378.213 51.4298 380.702 52.4396 382.454 54.4481C384.206 56.402 385.079 59.3384 385.079 63.2463V87.545H395.018V61.9036C395.018 55.4196 393.397 50.5347 390.166 47.2382ZM18.2561 114.251V132.098H45.131V141.317H18.2561V163.771H7.92427V105.12H48.5531V114.251H18.2561ZM60.5559 161.429C63.9999 163.383 67.8696 164.36 72.1649 164.36C76.5095 164.36 80.4064 163.383 83.8504 161.429C87.2943 159.475 89.9687 156.768 91.879 153.302C93.8384 149.782 94.8208 145.819 94.8208 141.404C94.8208 136.989 93.8384 133.053 91.879 129.588C89.9742 126.127 87.2943 123.415 83.8504 121.461C80.4064 119.507 76.5095 118.53 72.1649 118.53C67.8696 118.53 63.9999 119.507 60.5559 121.461C57.112 123.415 54.4048 126.122 52.4454 129.588C50.5406 133.053 49.5855 136.989 49.5855 141.404C49.5855 145.819 50.5352 149.782 52.4454 153.302C54.4048 156.763 57.112 159.475 60.5559 161.429ZM81.2306 151.545C78.8455 154.116 75.8218 155.398 72.1649 155.398C68.5081 155.398 65.4844 154.11 63.0993 151.545C60.7688 148.974 59.6008 145.596 59.6008 141.404C59.6008 137.212 60.7688 133.834 63.0993 131.263C65.4844 128.693 68.5081 127.41 72.1649 127.41C75.8218 127.41 78.8455 128.693 81.2306 131.263C83.6157 133.834 84.811 137.212 84.811 141.404C84.811 145.596 83.6157 148.974 81.2306 151.545ZM109.236 125.521C112.095 120.828 117.133 118.481 124.343 118.481V128.452C123.497 128.283 122.728 128.201 122.04 128.201C118.17 128.201 115.152 129.402 112.974 131.803C110.802 134.15 109.716 137.556 109.716 142.026V163.727H99.7769V118.983H109.236V125.521ZM219.191 144.755C219.295 143.412 219.35 142.381 219.35 141.655C219.35 137.07 218.422 133.053 216.566 129.593C214.765 126.073 212.222 123.365 208.936 121.466C205.699 119.512 202.021 118.535 197.884 118.535C193.692 118.535 189.931 119.512 186.591 121.466C183.251 123.425 180.631 126.16 178.721 129.68C176.865 133.141 175.937 137.054 175.937 141.409C175.937 145.825 176.887 149.787 178.797 153.308C180.757 156.768 183.513 159.481 187.066 161.435C190.619 163.388 194.723 164.365 199.39 164.365C203.047 164.365 206.332 163.749 209.247 162.521C212.167 161.293 214.574 159.475 216.484 157.074L211.157 150.622C208.139 153.859 204.297 155.48 199.63 155.48C195.973 155.48 192.895 154.53 190.406 152.631C187.972 150.677 186.46 148.052 185.876 144.755H219.191ZM189.768 129.926C191.994 127.912 194.696 126.908 197.878 126.908C201.115 126.908 203.816 127.912 205.989 129.926C208.161 131.934 209.46 134.56 209.886 137.802H185.794C186.269 134.505 187.595 131.88 189.768 129.926ZM135.51 140.978C135.51 149.274 142.491 153.226 148.238 153.226C154.138 153.226 161.244 149.274 161.244 140.727V140.127C161.244 131.923 155.415 127.099 148.587 127.099C140.663 127.099 135.51 132.087 135.51 140.296V140.978ZM171.058 158.875C171.058 170.287 164.688 180.575 147.889 180.575C134.435 180.575 127.28 173.868 126.183 165.757H136.575C137.721 169.889 141.781 171.799 147.807 171.799C155.454 171.799 161.092 167.547 161.092 159.42V155.562C158.035 159.42 152.523 161.86 145.891 161.86C136.28 161.86 125.424 153.848 125.424 141.065V140.465C125.424 127.415 134.168 118.486 145.891 118.486C153.38 118.486 158.919 121.078 161.621 125.527V119.075H171.058V158.875ZM180.451 76.9456C174.704 76.9456 167.723 72.994 167.723 64.698V64.0157C167.723 55.807 172.875 50.8184 180.8 50.8184C187.628 50.8184 193.457 55.6433 193.457 63.8465V64.4469C193.457 72.994 186.351 76.9456 180.451 76.9456ZM180.102 104.295C196.901 104.295 203.27 94.0071 203.27 82.5945V42.7953H193.834V49.2466C191.132 44.7983 185.592 42.2058 178.104 42.2058C166.38 42.2058 157.637 51.135 157.637 64.1849V64.7853C157.637 77.5678 168.493 85.58 178.104 85.58C184.735 85.58 190.248 83.1403 193.304 79.2816V83.1403C193.304 91.2672 187.666 95.5189 180.02 95.5189C173.994 95.5189 169.933 93.6086 168.787 89.477H158.39C159.492 97.5875 166.648 104.295 180.102 104.295ZM409.832 64.698C409.832 72.994 416.812 76.9456 422.56 76.9456C428.454 76.9456 435.56 72.994 435.566 64.4469V63.8465C435.566 55.6433 429.737 50.8184 422.909 50.8184C414.984 50.8184 409.832 55.807 409.832 64.0157V64.698ZM445.379 82.5945C445.379 94.0071 439.01 104.295 422.21 104.295C408.751 104.295 401.596 97.5875 400.499 89.477H410.891C412.037 93.6086 416.097 95.5189 422.123 95.5189C429.77 95.5189 435.408 91.2672 435.408 83.1403V79.2816C432.351 83.1403 426.839 85.58 420.207 85.58C410.596 85.58 399.74 77.5678 399.74 64.7853V64.1849C399.74 51.135 408.484 42.2058 420.207 42.2058C427.701 42.2058 433.241 44.7983 435.942 49.2466V42.7953H445.379V82.5945Z"/>
        </g>
    </symbol>
    <symbol id="telegram" viewBox="0 0 512 512">
        <g>
            <path d="M470.4354553,45.4225006L16.8273029,221.2490387c-18.253809,8.1874695-24.4278889,24.5854034-4.4127407,33.4840851l116.3710175,37.1726685l281.3674316-174.789505c15.3625488-10.9733887,31.0910339-8.0470886,17.5573425,4.023468L186.0532227,341.074646l-7.5913849,93.0762329c7.0313721,14.3716125,19.9055786,14.4378967,28.1172485,7.2952881l66.8582916-63.5891418l114.5050659,86.1867065c26.5942688,15.8265076,41.0652466,5.6130371,46.7870789-23.3935242L509.835083,83.1804428C517.6329956,47.474514,504.3345032,31.7425518,470.4354553,45.4225006z"/>
        </g>
    </symbol>
    <symbol id="facebook" viewBox="0 0 100 100">
        <g>
            <path d="M93.01,16.583c0.228-2.926,0.181-7.012,0.181-9.986c0,0-14.545-0.062-17.445-0.18   c-5.855-0.24-11.793,0.191-17.619,0.18c-4.137-0.008-8.21,0.117-12.393,0C43.09,6.522,6.863,6.96,6.863,6.96   C6.789,9.55,7.128,36.524,6.88,42.839c-0.273,6.955,0.29,33.307,0.181,39.309c-0.062,3.432,0.347,6.086-0.081,9.717l0.081,1.59   c13.382,0,27.258,0.277,40.916,0.182c-0.058-5.368,0.204-10.888-0.028-17.967c-0.048-1.454-0.097-16.768-0.266-17.574   c0,0-6.469,0.045-9.419,0.062c0,0-0.198-5.652-0.198-7.562c0-1.878,0-3.754,0-5.632c0,0,7.524-0.408,9.639-0.593   c0,0,0.295-7.168,0.589-9.491c0.336-2.653,0.409-5.333,1.968-7.682c2.854-4.295,5.69-8.081,10.938-9.224   c1.984-0.432,15.083-3.006,15.57-0.89l-0.294,12.748c-3.56,0-7.822-0.363-11.454,2.337c-2.023,1.505-2.578,2.759-2.784,5.231   c-0.12,1.44-0.149,7.266-0.149,7.266c1.918,0.275,4.757,0.154,6.818,0c2.33-0.173,8.308,0.445,8.308,0.445   c0,3.855-0.154,12.76-0.14,13.139c-2.381-0.039-4.557,0.031-7.324-0.089c-0.449-0.021-7.655,0.087-7.634,0.217   c0.523,3.206-0.229,6.61-0.184,9.851c0.026,1.889,0.582,18.976,0.327,25.276c3.186-0.027,6.382-0.05,9.633-0.05   c3.835,0,17.338,0.002,21.158,0C93.05,93.454,92.414,24.257,93.01,16.583z"/>
        </g>
    </symbol>
    <symbol id="instagram" viewBox="0 0 100 100">
        <g>
            <path d="M69.608,36.263c-2.461,0.753-6.146-1.858-4.39-6.23c0.923-2.296,3.241-2.915,6.001-1.429   C73.389,29.771,73.724,35.004,69.608,36.263z M73.47,24.873c7.219,6.212,5.38,20.909,5.327,29.23   c-0.024,3.819,0.224,7.535-0.021,10.619c-0.561,7.062-1.927,11-9.862,12.89c-5.723,1.361-11.463,1.134-17.269,0.838   c-4.155-0.212-8.278-0.198-12.435-0.042c-3.456,0.13-7.211,0.074-10.335-1.623c-7.6-4.126-7.817-18.197-7.554-26.196   c0.058-1.721,0.092-3.423,0.052-5.087C21.13,35.393,23.411,22.349,34.921,22.04c8.96-0.24,17.909-0.65,26.866-0.335   C65.765,21.846,70.309,22.153,73.47,24.873z M84.805,38.225c-0.19-6.262-1.216-12.49-5.41-16.852   c-3.221-3.349-7.939-4.823-12.419-5.543c-11.36-1.827-23.396-0.833-34.824-0.086c-5.573,0.365-12.759,4.619-14.854,10.014   c-2.074,5.338-2.034,10.383-2.088,16.021c-0.039,4.126-0.115,8.256,0.056,12.378c0.298,7.213-0.217,13.506,2.455,20.36   c0.553,1.418,1.229,2.578,2.264,3.737c2.299,2.574,4.439,4.453,7.758,5.438c4.339,1.287,8.985,0.925,13.506,0.925   c10.439,0,22.58,2.144,32.537-1.752c8.211-3.212,11.145-11.053,10.919-19.185c-0.124-4.492,0.153-8.974,0.061-13.461   C84.689,46.566,84.932,42.388,84.805,38.225z M67.628,47.814c-0.541-3.275-2.104-6.834-4.214-9.35   c-3.919-4.672-13.066-9.689-24.08-2.85c-5.521,3.429-7.83,12.426-7.011,17.993c0.114,0.779,0.283,1.536,0.501,2.27   c3.218,10.837,17.181,16.403,26.652,9.619C64.877,61.628,68.742,54.561,67.628,47.814z M61.167,52.918   c-1.288,5.356-6.084,9.321-11.681,8.832c-4.872-0.427-8.3-3.021-9.81-6.562c-1.203-2.821-1.188-6.245,0.284-9.654   c2.256-5.222,8.778-7.989,14.07-5.657C58.644,41.908,62.371,47.911,61.167,52.918z"/>
        </g>
    </symbol>
    <symbol id="VK" viewBox="0 0 100 100">
        <g>
            <path d="M84.418,69.921c-2.527,1.583-12.807,2.054-15.295,0.246c-1.365-0.991-2.613-2.232-3.799-3.412   c-0.828-0.826-1.77-1.227-2.482-2.123c-0.58-0.734-0.979-1.599-1.592-2.321c-1.033-1.215-2.625-2.248-3.885-0.764   c-1.895,2.231,0.299,6.617-2.229,8.285c-0.848,0.56-1.703,0.722-2.762,0.642l-2.346,0.107c-1.379,0.027-3.562,0.039-5.129-0.244   c-1.75-0.315-3.193-1.271-4.773-1.973c-3.002-1.331-5.863-3.145-8.039-5.658c-5.922-6.843-13.877-16.255-16.967-24.859   c-0.637-1.768-2.314-5.267-0.723-6.784c2.164-1.572,12.789-2.017,14.445,0.416c0.674,0.987,1.098,2.436,1.574,3.555   c0.592,1.396,0.914,2.713,1.84,3.949c0.82,1.097,1.426,2.199,2.061,3.402c0.713,1.349,1.385,2.643,2.252,3.886   c0.588,0.845,2.143,2.524,3.125,2.65c2.398,0.307,2.248-5.521,2.07-6.945c-0.17-1.371-0.215-2.825-0.17-4.216   c0.039-1.186,0.146-2.857-0.557-3.826c-1.145-1.58-3.695-0.397-3.895-2.52c0.422-0.603,0.332-1.138,3.146-2.064   c2.215-0.729,3.646-0.706,5.107-0.589c2.98,0.239,6.139-0.568,9.014,0.398c2.746,0.925,2.322,4.828,2.23,7.168   c-0.123,3.195,0.008,6.312,0,9.553c-0.004,1.477-0.062,2.912,1.736,2.793c1.688-0.113,1.859-1.532,2.664-2.704   c1.121-1.633,2.148-3.288,3.289-4.916c1.537-2.199,2-4.67,3.447-6.923c0.518-0.807,0.963-2.568,1.76-3.205   c0.604-0.481,1.75-0.275,2.48-0.275h1.736c1.33,0.016,2.686,0.035,4.051,0.083c1.967,0.068,4.17-0.359,6.121-0.084   c8.416,1.188-10.578,19.191-9.59,22.403c0.684,2.218,5.016,4.703,6.58,6.521C82.998,61.991,89.389,66.81,84.418,69.921z"/>
        </g>
    </symbol>
    <symbol id="like" viewBox="0 0 44 38">
        <g>
            <path stroke="rgba(204, 204, 204, 0.6)" stroke-width="3px" d="M35.500,10.852 C35.500,5.687 31.389,1.500 26.318,1.500 C23.007,1.500 20.115,3.291 18.500,5.968 C16.885,3.291 13.992,1.500 10.681,1.500 C5.610,1.500 1.500,5.687 1.500,10.852 C1.500,13.664 2.723,16.180 4.652,17.893 L17.662,31.146 C17.884,31.372 18.186,31.500 18.500,31.500 C18.814,31.500 19.116,31.372 19.338,31.146 L32.348,17.893 C34.276,16.180 35.500,13.664 35.500,10.852 Z"/>
        </g>
    </symbol>
</svg>
